<?xml version="1.0" standalone="no"?> <!DOCTYPE svg PUBLIC "-//W3C//DTD SVG 1.0//EN" "http://www.w3.org/TR/2001/REC-SVG-20010904/DTD/svg10.dtd" > <svg xmlns="http://www.w3.org/2000/svg" width="100%" height="100%">
<defs >
<font id="gothamrnd-medium" horiz-adv-x="507" ><font-face
    font-family="Gotham Rounded Medium"
    units-per-em="1000"
    panose-1="2 0 0 0 0 0 0 0 0 0"
    ascent="800"
    descent="-200"
    alphabetic="0" />
<missing-glyph horiz-adv-x="500" d="M0 -200V800H500V-200H0ZM71 750L250 360L429 750H71ZM50 -76L222 300L50 676V-76ZM450 676L278 300L450 -76V676ZM250 240L71 -150H429L250 240Z" />
<glyph unicode=" " glyph-name="space" horiz-adv-x="300" />
<glyph unicode="!" glyph-name="exclam" horiz-adv-x="302" d="M115 252L80 660Q78 678 88 690T115 703H187Q204 703 214 691T223 660L188 252Q187 236 177 226T151 216T126 226T115 252ZM80 74Q80 103 100 123T151 143Q182 143 202 123T222 74V64Q222 35 202
15T151 -5Q121 -5 101 15T80 64V74Z" />
<glyph unicode="&quot;" glyph-name="quotedbl" horiz-adv-x="487" d="M282 433L299 647Q301 671 316 687T356 703H396Q410 703 419 694T428 670Q428 664 424 648L351 426Q340 395 315 395Q300 395 291 405T282 433ZM62 433L80 647Q82 671 97 687T137 703H176Q191
703 200 694T209 670Q209 664 205 648L132 426Q121 395 96 395Q81 395 71 405T62 433Z" />
<glyph unicode="#" glyph-name="numbersign" horiz-adv-x="700" d="M114 56L132 161H86Q64 161 49 176T34 213Q34 234 49 249T86 265H150L180 439H122Q101 439 86 454T70 491T85 527T122 543H198L218 662Q221 681 235 693T270 705Q294 705 309 687T322 644L304
543H461L481 662Q484 681 499 693T534 705Q558 705 573 686T585 644L568 543H614Q635 543 650 528T666 491Q666 470 651 455T614 439H550L520 265H577Q599 265 614 250T629 213Q629 192 614 177T577 161H502L481 38Q478 19 464 7T429 -5Q405 -5 389 13T377 56L396
161H239L218 38Q215 20 201 8T165 -5Q141 -5 126 13T114 56ZM257 265H413L443 439H287L257 265Z" />
<glyph unicode="$" glyph-name="dollar" horiz-adv-x="642" d="M285 720Q285 738 298 750T329 763T359 751T372 720V698Q455 688 527 643Q557 626 557 595Q557 572 541 556T501 540Q486 540 471 549Q417 582 368 593V401Q482 372 533 324T585 195Q585 114 527
62T372 0V-60Q372 -78 360 -90T329 -103T298 -91T285 -60V2Q174 14 80 80Q53 97 53 128Q53 151 69 167T108 183Q127 183 141 172Q215 118 289 105V302Q177 331 126 378T75 508Q75 588 133 639T285 699V720ZM467 188Q467 222 446 244T368 283V101Q416 106 441 129T467
188ZM193 515Q193 482 213 461T289 422V599Q242 595 218 572T193 515Z" />
<glyph unicode="%" glyph-name="percent" horiz-adv-x="849" d="M212 350Q140 350 94 401T48 527V529Q48 604 94 656T214 708T332 657T378 531V529Q378 454 332 402T212 350ZM154 34Q154 47 163 60L622 687Q632 705 656 705Q673 705 684 694T696 666Q696 653 687
640L228 13Q216 -5 193 -5Q176 -5 165 6T154 34ZM635 -8Q563 -8 517 43T471 169V171Q471 246 517 298T637 350Q709 350 755 299T801 173V171Q801 97 755 45T635 -8ZM214 427Q248 427 268 456T289 527V529Q289 572 267 601T212 631Q178 631 158 602T137 531V529Q137
486 159 457T214 427ZM637 69Q671 69 691 98T712 169V171Q712 214 690 243T635 273Q601 273 581 244T560 173V171Q560 128 582 99T637 69Z" />
<glyph unicode="&amp;" glyph-name="ampersand" horiz-adv-x="696" d="M600 -10Q576 -10 557 9L484 83Q388 -10 268 -10Q168 -10 104 45T39 190V192Q39 324 188 388Q130 462 130 534V536Q130 609 185 660T331 712Q413 712 465 664T517 543V541Q517 417 364 359L483
238Q511 278 541 338Q554 367 587 367Q609 367 624 352T640 315Q640 302 633 288Q598 223 557 165L635 87Q654 68 654 45T639 6T600 -10ZM298 425Q354 445 381 471T408 534V536Q408 571 386 593T329 615Q292 615 269 592T245 531V529Q245 483 298 425ZM280 92Q348
92 413 154L257 313Q163 272 163 196V194Q163 150 196 121T280 92Z" />
<glyph unicode="&apos;" glyph-name="quotesingle" horiz-adv-x="269" d="M62 433L80 647Q82 671 97 687T137 703H176Q191 703 200 694T210 670Q210 664 206 648L133 426Q122 395 96 395Q81 395 71 405T62 433Z" />
<glyph unicode="(" glyph-name="parenleft" horiz-adv-x="441" d="M346 -135Q326 -135 317 -128Q63 24 63 287T317 702Q326 709 346 709Q364 709 378 694T392 660Q392 634 372 619Q276 551 230 472T184 287T230 103T372 -45Q392 -60 392 -86Q392 -105 378 -120T346 -135Z" />
<glyph unicode=")" glyph-name="parenright" horiz-adv-x="441" d="M94 -135Q76 -135 62 -120T48 -86Q48 -61 69 -45Q165 23 211 102T257 287T211 471T69 619Q48 635 48 660Q48 679 62 694T94 709Q114 709 123 702Q378 550 378 287T123 -128Q114 -135 94 -135Z" />
<glyph unicode="*" glyph-name="asterisk" horiz-adv-x="430" d="M184 414L194 504L119 449Q104 439 94 439Q81 439 71 449T61 473Q61 494 84 504L172 542L84 581Q61 591 61 612Q61 625 71 635T95 645Q106 645 119 635L194 580L184 669Q182 685 191 696T215 707T239
697T246 670L236 580L311 635Q324 645 336 645Q350 645 359 636T369 612Q369 591 346 581L258 542L346 504Q369 494 369 472Q369 459 359 449T335 439Q326 439 311 449L236 504L246 415Q248 399 239 388T215 377T191 387T184 414Z" />
<glyph unicode="+" glyph-name="plus" horiz-adv-x="634" d="M260 158V297H118Q95 297 79 313T63 352Q63 374 79 390T118 407H260V546Q260 570 276 586T317 603Q340 603 357 587T374 546V407H516Q538 407 554 391T571 352Q571 329 555 313T516 297H374V158Q374
134 357 118T317 101Q293 101 277 117T260 158Z" />
<glyph unicode="," glyph-name="comma" horiz-adv-x="269" d="M30 -117Q30 -95 53 -90Q124 -67 121 0Q97 7 81 25T64 68V76Q64 105 83 124T132 143Q166 143 185 120T204 55V44Q204 -51 155 -102Q110 -145 61 -145Q30 -145 30 -117Z" />
<glyph unicode="-" glyph-name="hyphen" horiz-adv-x="408" d="M110 247Q86 247 69 264T51 306Q51 331 68 348T110 366H298Q322 366 339 349T357 306Q357 282 340 265T298 247H110Z" />
<glyph unicode="." glyph-name="period" horiz-adv-x="269" d="M64 74Q64 103 84 123T135 143Q165 143 185 123T205 74V64Q205 35 185 15T135 -5Q104 -5 84 15T64 64V74Z" />
<glyph unicode="/" glyph-name="slash" horiz-adv-x="521" d="M0 -87Q0 -75 6 -63L415 775Q429 803 459 803Q478 803 492 790T506 757Q506 748 501 733L91 -105Q77 -133 48 -133Q28 -133 14 -120T0 -87Z" />
<glyph unicode="0" glyph-name="zero" horiz-adv-x="724" d="M496 -12T361 -12T142 91T57 348V350Q57 503 142 607T363 712T582 609T667 352V350Q667 197 582 93ZM283 99T363 99T491 170T540 348V350Q540 456 490 528T361 601T233 530T184 352V350Q184 244 233 172Z" />
<glyph unicode="1" glyph-name="one" horiz-adv-x="396" d="M178 56V584L106 562Q95 559 84 559Q62 559 46 574T30 611Q30 653 71 664L177 698Q215 709 237 709H239Q265 709 282 692T300 648V56Q300 30 282 13T239 -5T196 13T178 56Z" />
<glyph unicode="2" glyph-name="two" horiz-adv-x="613" d="M43 58Q43 93 75 119L290 302Q364 364 392 404T421 491Q421 541 389 570T308 600Q234 600 170 522Q153 503 127 503Q104 503 88 519T71 559Q71 580 85 597Q131 654 184 682T317 710Q420 710 484 653T548
501V499Q548 421 508 366T366 228L222 108H506Q528 108 544 92T560 54T544 16T506 0H109Q80 0 62 15T43 58Z" />
<glyph unicode="3" glyph-name="three" horiz-adv-x="618" d="M311 -12Q168 -12 74 79Q54 95 54 123Q54 147 71 164T113 182Q136 182 154 166Q221 99 313 99Q365 99 399 128T434 205V207Q434 258 391 286T273 315H248Q226 315 211 330T195 368Q195 392 221 418L385
593H131Q109 593 93 608T77 646T92 684T131 700H489Q516 700 533 685T550 646Q550 614 515 579L350 408Q439 397 497 350T556 212V210Q556 113 488 51T311 -12Z" />
<glyph unicode="4" glyph-name="four" horiz-adv-x="682" d="M412 53V157H99Q74 157 57 173T39 215Q39 248 66 280L395 670Q413 691 429 700T470 710T512 693T530 651V258H584Q606 258 620 243T635 207T621 172T584 157H530V53Q530 28 513 12T471 -5T429 11T412
53ZM182 258H412V535L182 258Z" />
<glyph unicode="5" glyph-name="five" horiz-adv-x="623" d="M308 -12Q182 -12 84 64Q59 84 59 112Q59 136 76 153T118 171Q139 171 154 159Q227 100 306 100Q366 100 404 133T442 221V223Q442 276 402 307T297 339Q257 339 219 327T177 315Q153 315 119 339Q93
357 95 393L110 645Q111 669 127 684T166 700H483Q506 700 522 684T538 645Q538 623 522 607T483 591H220L209 427Q264 447 320 447Q428 447 496 391T564 227V225Q564 119 493 54T308 -12Z" />
<glyph unicode="6" glyph-name="six" horiz-adv-x="656" d="M337 -12Q216 -12 142 62Q100 104 79 166T57 329V331Q57 498 135 605T357 712Q458 712 532 662Q563 642 563 609Q563 585 546 569T504 552Q489 552 473 561Q414 600 353 600Q277 600 234 539T185 378Q257
448 353 448Q458 448 527 389T597 228V226Q597 123 523 56T337 -12ZM270 95T334 95T436 130T474 221V223Q474 276 435 310T331 345T228 310T189 222V220Q189 166 229 131Z" />
<glyph unicode="7" glyph-name="seven" horiz-adv-x="609" d="M137 50Q137 68 148 88L420 592H117Q94 592 79 608T63 646T78 684T117 700H510Q536 700 551 686T566 645Q566 618 549 586L259 36Q237 -5 200 -5Q174 -5 156 10T137 50Z" />
<glyph unicode="8" glyph-name="eight" horiz-adv-x="630" d="M315 -10Q199 -10 124 45T48 191V193Q48 310 174 363Q72 417 72 519V521Q72 602 141 656T315 710T489 656T558 521V519Q558 417 456 363Q582 306 582 195V193Q582 101 507 46T315 -10ZM261 404T315
404T404 433T440 507V509Q440 550 405 578T315 607T225 579T190 510V508Q190 462 225 433ZM248 93T315 93T422 123T462 198V200Q462 247 420 276T315 306T211 277T169 200V198Q169 154 208 124Z" />
<glyph unicode="9" glyph-name="nine" horiz-adv-x="656" d="M299 -12Q196 -12 110 46Q82 64 82 97Q82 121 99 137T140 153Q157 153 174 143Q235 100 302 100Q378 100 423 160T471 320Q409 246 307 246Q195 246 127 306T59 468V470Q59 574 132 643T320 712Q439
712 515 638Q599 552 599 371V369Q599 198 519 93T299 -12ZM260 349T325 349T428 385T467 475V477Q467 533 427 569T321 606Q257 606 220 569T182 476V474Q182 419 221 384Z" />
<glyph unicode=":" glyph-name="colon" horiz-adv-x="279" d="M69 464Q69 494 89 514T140 534Q170 534 190 514T210 464V455Q210 425 190 405T140 385Q109 385 89 405T69 455V464ZM69 74Q69 103 89 123T140 143Q170 143 190 123T210 74V64Q210 35 190 15T140 -5Q109
-5 89 15T69 64V74Z" />
<glyph unicode=";" glyph-name="semicolon" horiz-adv-x="279" d="M69 464Q69 494 89 514T140 534Q170 534 190 514T210 464V455Q210 425 190 405T140 385Q109 385 89 405T69 455V464ZM35 -117Q35 -95 58 -90Q129 -67 126 0Q102 7 86 25T69 68V76Q69 105 88 124T137
143Q171 143 190 120T209 55V44Q209 -51 160 -102Q115 -145 66 -145Q35 -145 35 -117Z" />
<glyph unicode="&lt;" glyph-name="less" horiz-adv-x="634" d="M497 96Q486 96 470 104L109 281Q61 303 61 348V356Q61 401 109 423L470 600Q486 608 501 608Q521 609 535 594T550 557Q550 523 516 507L187 353L516 198Q550 182 550 147Q550 125 535 111T497 96Z" />
<glyph unicode="=" glyph-name="equal" horiz-adv-x="634" d="M127 421Q104 421 88 437T71 477T87 516T127 533H507Q530 533 546 517T563 477T547 438T507 421H127ZM127 171Q104 171 88 187T71 227T87 266T127 283H507Q530 283 546 267T563 227T547 188T507 171H127Z" />
<glyph unicode="&gt;" glyph-name="greater" horiz-adv-x="634" d="M137 608Q148 608 164 600L524 423Q573 401 573 356V348Q573 303 524 281L164 104Q148 96 133 96Q113 95 99 110T84 147Q84 181 118 196L447 351L118 506Q84 522 84 557Q84 579 99 593T137 608Z" />
<glyph unicode="?" glyph-name="question" horiz-adv-x="541" d="M251 216H245Q228 216 216 227T202 256L192 342Q189 362 200 376T231 392Q377 406 377 500V502Q377 545 346 571T262 597Q187 597 126 542Q108 528 89 528Q66 528 50 544T33 583Q33 609 53 626Q141
709 265 709Q371 709 435 654T500 506V504Q500 337 298 302L294 256Q291 239 280 228T251 216ZM174 74Q174 103 194 123T245 143T296 123T316 74V64Q316 35 296 15T245 -5T194 15T174 64V74Z" />
<glyph unicode="@" glyph-name="at" horiz-adv-x="980" d="M499 -162Q309 -162 181 -35T53 274Q53 454 180 583T491 712Q581 712 662 679T801 592T893 465T927 316Q927 196 872 132T733 67Q629 67 585 137Q517 67 430 67Q353 67 301 119T249 256Q249 360 318 433T476
506Q569 506 617 432L620 450Q629 500 672 500Q695 500 709 483T720 439L682 225Q677 195 677 182Q677 149 698 130T755 111Q811 111 849 164T887 316Q887 458 772 566T491 674Q322 674 208 557T93 274Q93 106 208 -9T499 -124Q628 -124 737 -62Q742 -59 748 -59Q755
-59 759 -64T764 -77Q764 -88 755 -92Q637 -162 499 -162ZM457 154Q512 154 553 201T595 312Q595 360 565 390T490 420Q434 420 393 374T352 262Q352 211 381 183T457 154Z" />
<glyph unicode="A" glyph-name="A" horiz-adv-x="773" d="M42 52Q42 64 50 80L310 660Q333 710 384 710H390Q440 710 463 660L723 80Q730 67 730 54Q730 29 714 12T672 -5Q630 -5 612 38L555 169H215L156 34Q140 -5 99 -5Q75 -5 59 11T42 52ZM262 278H508L385
561L262 278Z" />
<glyph unicode="B" glyph-name="B" horiz-adv-x="722" d="M90 62V638Q90 664 108 682T152 700H404Q525 700 587 638Q634 591 634 522V520Q634 416 534 364Q673 317 673 194V192Q673 100 603 50T414 0H152Q126 0 108 18T90 62ZM211 405H379Q440 405 475 429T511
500V502Q511 544 479 567T388 591H211V405ZM211 109H415Q479 109 514 133T550 205V207Q550 301 406 301H211V109Z" />
<glyph unicode="C" glyph-name="C" horiz-adv-x="738" d="M415 -12Q263 -12 161 92T59 348V350Q59 502 161 607T420 712Q557 712 660 633Q684 615 684 584Q684 559 667 542T623 524Q602 524 586 536Q508 599 419 599Q320 599 254 528T188 352V350Q188 246 254
174T419 102Q515 102 594 169Q610 183 631 183Q654 183 671 166T689 126Q689 100 669 82Q562 -12 415 -12Z" />
<glyph unicode="D" glyph-name="D" horiz-adv-x="782" d="M90 62V638Q90 664 108 682T152 700H351Q514 700 618 601T723 352V350Q723 200 619 100T351 0H152Q126 0 108 18T90 62ZM213 112H351Q460 112 527 178T594 348V350Q594 454 527 521T351 588H213V112Z" />
<glyph unicode="E" glyph-name="E" horiz-adv-x="670" d="M152 0Q126 0 108 18T90 62V638Q90 664 108 682T152 700H559Q582 700 598 684T614 645T598 606T559 590H213V408H514Q537 408 553 392T569 352Q569 330 553 314T514 298H213V110H564Q586 110 602 94T619
55T603 16T564 0H152Z" />
<glyph unicode="F" glyph-name="F" horiz-adv-x="656" d="M90 56V638Q90 664 108 682T152 700H560Q583 700 599 684T616 644T600 605T560 588H213V397H515Q538 397 554 381T571 341T555 302T515 285H213V56Q213 30 196 13T152 -5T108 12T90 56Z" />
<glyph unicode="G" glyph-name="G" horiz-adv-x="784" d="M422 -12Q260 -12 160 90T59 348V350Q59 500 161 606T420 712Q560 712 659 641Q684 622 684 591Q684 566 666 548T623 530Q605 530 585 544Q510 599 415 599Q319 599 254 527T188 352V350Q188 241 254
171T426 100Q524 100 595 153V284H457Q434 284 418 299T402 337T418 375T457 391H652Q678 391 696 373T714 329V142Q714 91 671 64Q557 -12 422 -12Z" />
<glyph unicode="H" glyph-name="H" horiz-adv-x="760" d="M90 56V644Q90 670 108 687T152 705T195 688T213 644V409H547V644Q547 670 564 687T608 705T652 688T670 644V56Q670 30 652 13T608 -5T565 12T547 56V295H213V56Q213 30 196 13T152 -5T108 12T90 56Z" />
<glyph unicode="I" glyph-name="I" horiz-adv-x="317" d="M97 56V644Q97 670 115 687T159 705Q184 705 202 688T220 644V56Q220 30 202 13T159 -5Q133 -5 115 12T97 56Z" />
<glyph unicode="J" glyph-name="J" horiz-adv-x="560" d="M245 -10Q131 -10 54 67Q33 86 33 113Q33 138 50 155T92 172Q113 172 130 158Q182 104 244 104Q297 104 327 138T357 242V644Q357 669 375 687T419 705T463 687T481 644V238Q481 118 415 52Q353 -10 245 -10Z" />
<glyph unicode="K" glyph-name="K" horiz-adv-x="713" d="M90 56V644Q90 670 108 687T152 705T195 688T213 644V348L545 682Q566 705 596 705Q621 705 637 688T653 648Q653 622 631 602L413 392L649 99Q666 77 666 55Q666 30 648 13T604 -5Q574 -5 552 24L327
311L213 201V56Q213 30 196 13T152 -5T108 12T90 56Z" />
<glyph unicode="L" glyph-name="L" horiz-adv-x="619" d="M90 62V644Q90 670 108 687T152 705T195 688T213 644V112H530Q553 112 569 96T586 56T570 17T530 0H152Q126 0 108 18T90 62Z" />
<glyph unicode="M" glyph-name="M" horiz-adv-x="868" d="M90 55V642Q90 668 108 686T152 704H165Q201 704 222 671L434 339L647 672Q667 704 703 704H716Q742 704 760 686T778 642V56Q778 30 760 13T716 -5Q691 -5 673 13T655 56V476L484 219Q463 187 432 187Q402
187 381 219L211 474V55Q211 30 194 13T150 -5T107 12T90 55Z" />
<glyph unicode="N" glyph-name="N" horiz-adv-x="790" d="M90 55V642Q90 668 108 686T152 704H165Q200 704 229 668L579 215V645Q579 670 596 687T639 705T682 688T700 645V57Q700 31 683 14T640 -4H635Q600 -4 571 33L211 499V55Q211 30 194 13T151 -5T108 12T90 55Z" />
<glyph unicode="O" glyph-name="O" horiz-adv-x="850" d="M583 -12T424 -12T162 93T59 348V350Q59 500 163 606T426 712T688 607T791 352V350Q791 200 687 94ZM323 102T426 102T595 173T662 348V350Q662 454 595 526T424 599T255 528T188 352V350Q188 246 255 174Z" />
<glyph unicode="P" glyph-name="P" horiz-adv-x="668" d="M90 56V638Q90 664 108 682T152 700H366Q488 700 560 636T632 466V464Q632 351 553 288T352 225H213V56Q213 30 196 13T152 -5T108 12T90 56ZM213 336H356Q425 336 466 371T507 461V463Q507 523 467 555T356
588H213V336Z" />
<glyph unicode="Q" glyph-name="Q" horiz-adv-x="850" d="M424 -12Q265 -12 162 93T59 348V350Q59 500 163 606T426 712T688 607T791 352V350Q791 231 720 135L765 98Q788 78 788 50Q788 26 771 9T730 -9Q705 -9 687 9L637 54Q544 -12 424 -12ZM460 208Q437 228
437 256Q437 280 454 297T495 315Q517 315 538 297L628 215Q662 274 662 348V350Q662 454 595 526T424 599T255 528T188 352V350Q188 246 255 174T426 102Q493 102 547 134L460 208Z" />
<glyph unicode="R" glyph-name="R" horiz-adv-x="723" d="M90 56V638Q90 664 108 682T152 700H402Q532 700 604 630Q662 570 662 479V477Q662 396 620 344T503 268L637 99Q657 74 657 52Q657 27 639 11T598 -5Q562 -5 538 27L368 244H213V56Q213 30 196 13T152
-5T108 12T90 56ZM213 353H393Q459 353 498 385T537 470V472Q537 528 499 558T392 588H213V353Z" />
<glyph unicode="S" glyph-name="S" horiz-adv-x="640" d="M335 -10Q190 -10 72 78Q48 95 48 125Q48 149 65 165T106 182Q127 182 142 171Q233 99 338 99Q395 99 428 123T462 187V189Q462 228 430 251T304 296Q244 311 204 326T132 365T86 423T71 505V507Q71 597
138 653T310 710Q435 710 532 645Q559 630 559 596Q559 572 542 556T501 539Q484 539 469 548Q387 601 308 601Q256 601 225 578T194 518V516Q194 475 227 453T361 406Q477 378 531 332T585 201V199Q585 102 516 46T335 -10Z" />
<glyph unicode="T" glyph-name="T" horiz-adv-x="648" d="M262 56V586H92Q68 586 52 603T35 643T51 683T92 700H557Q580 700 596 683T613 643T597 603T557 586H386V56Q386 31 368 13T324 -5T280 13T262 56Z" />
<glyph unicode="U" glyph-name="U" horiz-adv-x="757" d="M377 -11Q238 -11 159 68T79 297V644Q79 670 97 687T141 705Q166 705 184 688T202 644V302Q202 206 248 155T379 103Q462 103 508 152T555 297V644Q555 670 573 687T617 705Q642 705 660 688T678 644V303Q678
150 598 70T377 -11Z" />
<glyph unicode="V" glyph-name="V" horiz-adv-x="733" d="M363 -10Q314 -10 293 40L48 616Q41 632 41 645Q41 670 59 687T103 705Q149 705 166 661L368 156L573 665Q579 682 595 693T632 705Q658 705 675 688T693 646Q693 634 687 620L441 40Q420 -10 370 -10H363Z" />
<glyph unicode="W" glyph-name="W" horiz-adv-x="1099" d="M254 41L47 621Q42 633 42 645Q42 670 60 687T105 705Q127 705 143 693T166 660L327 179L485 658Q502 707 547 707H556Q603 707 618 658L776 179L937 661Q953 705 997 705Q1022 705 1040 688T1058 646Q1058
635 1052 621L845 41Q827 -10 781 -10H769Q724 -10 706 41L550 498L394 41Q376 -10 330 -10H318Q273 -10 254 41Z" />
<glyph unicode="X" glyph-name="X" horiz-adv-x="714" d="M54 52Q54 73 72 98L280 356L84 599Q65 624 65 645Q65 671 82 688T126 705Q160 705 182 675L359 442L534 671Q559 705 594 705Q616 705 633 689T650 649Q650 626 631 602L435 358L641 101Q660 76 660 55Q660
29 643 12T599 -5Q566 -5 543 25L355 270L170 29Q144 -5 110 -5Q88 -5 71 11T54 52Z" />
<glyph unicode="Y" glyph-name="Y" horiz-adv-x="696" d="M287 56V272L46 603Q32 624 32 646Q32 671 50 688T94 705Q129 705 154 668L349 387L547 669Q572 706 606 706Q632 706 649 689T666 646Q666 625 649 602L410 275V56Q410 30 392 13T348 -5T305 12T287 56Z" />
<glyph unicode="Z" glyph-name="Z" horiz-adv-x="702" d="M116 0Q94 0 78 16T61 54V57Q61 88 84 114L478 591H127Q105 591 89 607T73 645T89 683T127 700H587Q609 700 625 684T642 646V643Q642 614 620 586L225 109H589Q612 109 628 93T644 54T628 16T589 0H116Z" />
<glyph unicode="[" glyph-name="bracketleft" horiz-adv-x="455" d="M88 -70V640Q88 665 105 682T147 700H353Q372 700 386 686T401 652Q401 633 387 619T353 605H204V-35H353Q373 -35 387 -49T401 -82Q401 -102 387 -116T353 -130H147Q122 -130 105 -113T88 -70Z" />
<glyph unicode="\" glyph-name="backslash" horiz-adv-x="521" d="M521 -87Q521 -106 507 -119T473 -133Q444 -133 430 -105L20 733Q15 748 15 757Q15 776 29 789T62 803Q92 803 106 775L515 -63Q521 -75 521 -87Z" />
<glyph unicode="]" glyph-name="bracketright" horiz-adv-x="455" d="M367 640V-70Q367 -95 350 -112T307 -130H101Q82 -130 68 -116T54 -82T68 -49T101 -35H251V605H101Q82 605 68 618T54 652T68 686T101 700H307Q332 700 349 683T367 640Z" />
<glyph unicode="^" glyph-name="asciicircum" horiz-adv-x="500" d="M249 625L177 532Q157 506 142 497T105 488Q77 488 77 508Q77 522 89 538L184 668Q209 704 245 704H254Q289 704 316 668L411 538Q422 521 422 508Q422 488 394 488Q371 488 356 497T321 532L249 625Z" />
<glyph unicode="_" glyph-name="underscore" horiz-adv-x="600" d="M-2 -160Q-22 -160 -35 -146T-49 -113T-36 -80T-2 -66H602Q622 -66 635 -80T649 -113T636 -146T602 -160H-2Z" />
<glyph unicode="`" glyph-name="grave" horiz-adv-x="500" d="M293 590Q251 590 223 617L155 681Q138 696 138 711Q138 725 161 737T210 750Q240 750 258 721L315 633Q324 620 324 611Q324 590 293 590Z" />
<glyph unicode="a" glyph-name="a" horiz-adv-x="587" d="M228 -11Q150 -11 96 32T41 152V154Q41 237 100 280T259 324Q332 324 401 302V315Q401 371 368 400T270 430T153 409Q143 406 134 406Q113 406 98 420T83 456Q83 491 116 504Q198 535 286 535Q404 535
461 476Q518 420 518 313V53Q518 28 501 12T459 -5Q433 -5 417 10T400 46V66Q336 -11 228 -11ZM262 77Q323 77 363 108T403 190V226Q349 247 283 247Q225 247 192 224T159 159V157Q159 120 188 99T262 77Z" />
<glyph unicode="b" glyph-name="b" horiz-adv-x="671" d="M76 55V675Q76 700 93 717T136 735T179 718T197 675V440Q267 539 377 539Q476 539 549 465T622 265V263Q622 138 550 64T377 -11Q267 -11 197 82V55Q197 30 179 13T136 -5T94 12T76 55ZM348 94Q412 94
455 140T499 263V265Q499 340 455 387T348 434T240 387T194 265V263Q194 189 239 142T348 94Z" />
<glyph unicode="c" glyph-name="c" horiz-adv-x="571" d="M320 -12Q203 -12 125 67T47 261V263Q47 377 125 458T322 539Q431 539 507 473Q526 456 526 431Q526 408 510 392T470 376Q450 376 434 388Q380 433 321 433Q256 433 212 384T168 265V263Q168 192 212
143T326 94Q389 94 444 141Q459 154 477 154Q499 154 514 139T529 101Q529 77 512 63Q434 -12 320 -12Z" />
<glyph unicode="d" glyph-name="d" horiz-adv-x="671" d="M595 675V55Q595 30 578 13T535 -5Q509 -5 492 12T474 55V88Q404 -11 294 -11Q195 -11 122 63T49 263V265Q49 391 121 465T294 539Q403 539 474 446V675Q474 700 491 717T534 735Q560 735 577 718T595
675ZM323 434Q259 434 215 388T171 265V263Q171 188 215 141T323 94T431 141T476 263V265Q476 339 431 386T323 434Z" />
<glyph unicode="e" glyph-name="e" horiz-adv-x="604" d="M167 301H438Q432 362 397 401T304 440Q249 440 212 402T167 301ZM508 58Q430 -12 318 -12Q202 -12 125 64T47 262V264Q47 379 120 459T305 539Q385 539 444 499T529 401T556 279Q556 254 540 238T499
221H168Q178 158 219 123T320 87Q389 87 445 133Q459 144 476 144Q496 144 510 130T524 95T508 58Z" />
<glyph unicode="f" glyph-name="f" horiz-adv-x="376" d="M103 55V424H82Q61 424 46 438T31 474T46 510T82 525H103V564Q103 651 146 694Q188 736 265 736Q298 736 326 731Q343 729 355 715T368 681Q368 660 353 645T317 631Q303 633 292 633Q222 633 222 553V524H316Q338
524 352 510T367 474T352 439T316 424H224V55Q224 30 206 13T163 -5T121 12T103 55Z" />
<glyph unicode="g" glyph-name="g" horiz-adv-x="671" d="M311 -162Q204 -162 107 -115Q73 -102 73 -67Q73 -47 88 -32T124 -17Q136 -17 146 -22Q221 -64 308 -64Q389 -64 432 -23T475 98V139Q400 42 289 42Q191 42 120 109T49 289V291Q49 403 120 471T289 539Q399
539 474 449V474Q474 499 491 516T534 534Q560 534 577 516T595 473V108Q595 -24 528 -91Q457 -162 311 -162ZM321 145Q385 145 430 186T476 290V292Q476 355 431 396T321 437T214 397T171 292V290Q171 226 214 186T321 145Z" />
<glyph unicode="h" glyph-name="h" horiz-adv-x="620" d="M76 55V675Q76 700 93 717T136 735T179 718T197 675V447Q261 539 362 539Q450 539 500 485T550 337V55Q550 30 533 13T490 -5T447 12T429 55V300Q429 362 400 395T316 429Q263 429 230 394T197 298V55Q197
30 180 13T136 -5Q111 -5 94 12T76 55Z" />
<glyph unicode="i" glyph-name="i" horiz-adv-x="286" d="M74 664V670Q74 697 93 713T143 729T192 713T212 670V664Q212 637 193 621T143 604T94 620T74 664ZM83 55V473Q83 499 100 516T143 534T186 516T204 473V55Q204 30 187 13T143 -5Q118 -5 101 12T83 55Z" />
<glyph unicode="j" glyph-name="j" horiz-adv-x="286" d="M58 -163H49Q-17 -161 -17 -113Q-17 -91 -3 -77T31 -63Q32 -63 35 -64H38Q83 -64 83 -7V473Q83 499 100 516T143 534T186 516T204 473V-7Q204 -85 166 -124T58 -163ZM74 664V670Q74 697 93 713T143 729T192
713T212 670V664Q212 637 193 621T143 604T94 620T74 664Z" />
<glyph unicode="k" glyph-name="k" horiz-adv-x="580" d="M76 55V675Q76 700 93 717T136 735T179 718T197 675V285L424 508Q450 534 476 534Q499 534 514 518T529 479Q529 453 502 428L362 299L522 90Q538 68 538 50Q538 26 522 11T481 -5Q449 -5 428 22L277 223L197
147V55Q197 30 180 13T136 -5Q111 -5 94 12T76 55Z" />
<glyph unicode="l" glyph-name="l" horiz-adv-x="286" d="M83 55V675Q83 700 100 717T143 735T186 718T204 675V55Q204 30 187 13T143 -5Q118 -5 101 12T83 55Z" />
<glyph unicode="m" glyph-name="m" horiz-adv-x="950" d="M76 55V473Q76 499 93 516T136 534Q162 534 179 516T197 473V448Q263 539 358 539Q470 539 516 446Q586 539 694 539Q781 539 830 486T879 337V55Q879 30 862 13T819 -5Q793 -5 776 12T758 55V300Q758
363 730 396T651 429T569 395T538 298V55Q538 30 521 13T478 -5Q452 -5 435 12T417 55V301Q417 362 389 395T310 429T228 394T197 298V55Q197 30 180 13T136 -5Q111 -5 94 12T76 55Z" />
<glyph unicode="n" glyph-name="n" horiz-adv-x="620" d="M76 55V473Q76 499 93 516T136 534Q162 534 179 516T197 473V447Q261 539 362 539Q450 539 500 485T550 337V55Q550 30 533 13T490 -5T447 12T429 55V300Q429 362 400 395T316 429Q263 429 230 394T197
298V55Q197 30 180 13T136 -5Q111 -5 94 12T76 55Z" />
<glyph unicode="o" glyph-name="o" horiz-adv-x="657" d="M327 -12Q207 -12 127 67T47 261V263Q47 378 128 458T329 539T529 459T610 265V263Q610 149 529 69T327 -12ZM329 94Q401 94 445 142T489 261V263Q489 334 443 383T327 433Q256 433 212 385T168 265V263Q168
193 214 144T329 94Z" />
<glyph unicode="p" glyph-name="p" horiz-adv-x="671" d="M76 -105V473Q76 499 93 516T136 534Q162 534 179 516T197 473V440Q267 539 377 539Q476 539 549 465T622 265V263Q622 138 550 64T377 -11Q267 -11 197 82V-105Q197 -130 180 -147T136 -165Q111 -165
94 -148T76 -105ZM348 94Q412 94 455 140T499 263V265Q499 340 455 387T348 434T240 387T194 265V263Q194 189 239 142T348 94Z" />
<glyph unicode="q" glyph-name="q" horiz-adv-x="671" d="M595 473V-105Q595 -130 578 -147T535 -165Q509 -165 492 -148T474 -105V88Q404 -11 294 -11Q195 -11 122 63T49 263V265Q49 391 121 465T294 539Q403 539 474 446V474Q474 499 491 516T534 534Q560 534
577 516T595 473ZM323 434Q259 434 215 388T171 265V263Q171 188 215 141T323 94T431 141T476 263V265Q476 339 431 386T323 434Z" />
<glyph unicode="r" glyph-name="r" horiz-adv-x="413" d="M76 55V473Q76 499 93 516T136 534Q162 534 179 516T197 473V419Q219 470 255 502T330 535Q358 535 374 519T390 475Q390 452 377 437T342 417Q275 405 236 354T197 211V55Q197 30 179 13T136 -5T94 12T76 55Z" />
<glyph unicode="s" glyph-name="s" horiz-adv-x="501" d="M257 -10Q147 -10 56 53Q33 65 33 95Q33 115 47 129T82 144Q96 144 108 137Q184 86 260 86Q299 86 320 101T342 143V145Q342 157 336 166T318 183T292 196T260 208T224 219Q188 229 164 239T113 266T73
311T59 374V376Q59 449 112 493T247 537Q332 537 413 494Q442 479 442 448Q442 427 428 413T392 399Q380 399 368 405Q298 441 244 441Q210 441 190 427T170 389V387Q170 379 173 372T183 359T197 348T216 338T238 329T263 320T289 312Q324 301 348 291T398 262T439
218T453 158V156Q453 76 398 33T257 -10Z" />
<glyph unicode="t" glyph-name="t" horiz-adv-x="411" d="M253 -9Q101 -9 101 146V424H81Q59 424 44 439T29 476T44 513T81 528H101V618Q101 643 119 660T162 678T204 661T222 618V528H317Q339 528 354 513T370 476T355 439T317 424H222V165Q222 99 287 99Q295
99 305 100T317 102Q338 102 353 88T368 52Q368 18 336 5Q296 -9 253 -9Z" />
<glyph unicode="u" glyph-name="u" horiz-adv-x="620" d="M545 473V55Q545 30 527 13T484 -5T441 12T423 55V82Q360 -11 258 -11Q170 -11 120 44T70 192V473Q70 498 87 516T130 534Q156 534 173 516T191 473V228Q191 167 220 134T304 100Q357 100 390 134T423
230V473Q423 498 440 516T484 534Q509 534 527 516T545 473Z" />
<glyph unicode="v" glyph-name="v" horiz-adv-x="586" d="M365 43Q341 -10 296 -10H290Q244 -10 221 43L45 446Q38 467 38 476Q38 499 56 516T98 534Q140 534 158 490L294 140L432 492Q450 534 489 534Q514 534 531 518T548 476Q548 461 541 447L365 43Z" />
<glyph unicode="w" glyph-name="w" horiz-adv-x="853" d="M253 -9Q204 -9 186 45L44 447Q38 463 38 478Q38 501 54 517T97 534Q141 534 156 486L258 166L361 486Q376 534 423 534H430Q477 534 492 486L596 166L699 487Q713 534 758 534Q782 534 798 518T815 478Q815
466 810 451L666 45Q647 -9 599 -9H595Q545 -9 529 43L426 357L322 43Q306 -9 257 -9H253Z" />
<glyph unicode="x" glyph-name="x" horiz-adv-x="573" d="M48 46Q48 69 65 88L215 268L76 433Q56 458 56 479Q56 504 72 519T112 535Q144 535 168 505L287 349L408 504Q432 535 460 535Q484 535 500 520T517 482Q517 461 500 441L357 270L505 95Q525 70 525 49Q525
24 509 9T469 -7Q436 -7 413 24L285 189L157 24Q131 -7 104 -7Q81 -7 65 8T48 46Z" />
<glyph unicode="y" glyph-name="y" horiz-adv-x="587" d="M172 -163Q126 -163 88 -148Q50 -135 50 -98Q50 -76 64 -62T99 -48Q109 -48 121 -52Q146 -59 163 -59Q190 -59 206 -47T238 -3L242 8L46 446Q39 462 39 475Q39 500 56 517T99 534Q140 534 158 488L300
137L432 488Q450 534 490 534Q514 534 531 518T548 477Q548 463 543 448L350 -15Q316 -96 276 -129T172 -163Z" />
<glyph unicode="z" glyph-name="z" horiz-adv-x="560" d="M108 0Q83 0 66 14T49 49V51Q49 81 76 109L357 429H108Q87 429 73 443T58 478Q58 499 72 513T108 528H456Q481 528 497 515T514 480V477Q514 448 488 419L206 99H466Q487 99 501 85T516 49Q516 29 502
15T466 0H108Z" />
<glyph unicode="{" glyph-name="braceleft" horiz-adv-x="487" d="M385 -135Q274 -111 232 -65T189 59Q189 66 190 94T191 131Q191 186 169 212T97 239Q73 240 60 253T46 287T59 320T97 335Q148 337 169 362T191 444Q191 453 190 481T189 516Q189 593 231 639T385
709Q408 714 424 702T440 668Q440 636 412 627Q343 606 322 579T301 498Q301 488 302 462T303 424Q303 368 277 336T199 287Q252 270 277 238T303 150Q303 139 302 113T301 76Q301 22 322 -5T412 -53Q440 -62 440 -94Q440 -116 424 -128T385 -135Z" />
<glyph unicode="|" glyph-name="bar" horiz-adv-x="331" d="M117 -85V755Q117 775 131 789T165 803T199 789T214 755V-85Q214 -105 200 -119T165 -133T131 -119T117 -85Z" />
<glyph unicode="}" glyph-name="braceright" horiz-adv-x="487" d="M102 709Q213 685 255 639T298 516Q298 509 297 481T296 444Q296 388 318 363T391 335Q414 334 427 321T441 287T428 254T391 239Q340 238 318 212T296 131Q296 122 297 94T298 59Q298 -19 256
-65T102 -135Q79 -140 63 -128T47 -94Q47 -62 76 -53Q145 -32 165 -5T186 76Q186 86 185 112T184 150Q184 206 210 238T288 287Q235 304 210 336T184 424Q184 435 185 461T186 498Q186 552 166 579T76 627Q47 636 47 668Q47 690 63 702T102 709Z" />
<glyph unicode="~" glyph-name="asciitilde" horiz-adv-x="495" d="M134 247Q123 227 102 227Q87 227 76 237T65 261T69 283Q86 329 109 351T171 374Q201 374 250 355T314 335Q344 335 361 366Q372 387 393 387Q408 387 419 377T430 353Q430 339 426 330Q409 284
386 262T324 239Q294 239 245 259T181 279Q151 279 134 247Z" />
</font>
</defs>
</svg>
